<?xml version="1.0" encoding="utf-8"?>
<!-- Generator: Adobe Illustrator 27.4.1, SVG Export Plug-In . SVG Version: 6.00 Build 0)  -->
<svg version="1.1" id="Layer_1" xmlns="http://www.w3.org/2000/svg" xmlns:xlink="http://www.w3.org/1999/xlink" x="0px" y="0px"
	 viewBox="0 0 512 171.2" style="enable-background:new 0 0 512 171.2;" xml:space="preserve">
<style type="text/css">
	.st0{fill:#FFFFFF;}
</style>
<path id="Path_1155" class="st0" d="M512,36.1c0-1.3,0-2.6,0-3.9c-0.1-2.9-0.3-5.7-0.8-8.6c-0.5-2.8-1.4-5.6-2.7-8.1
	c-2.6-5.1-6.8-9.3-12-12c-2.6-1.3-5.3-2.2-8.1-2.7c-2.8-0.5-5.7-0.7-8.6-0.8c-1.3,0-2.6,0-3.9-0.1c-1.5,0-3.1,0-4.6,0H40.8
	c-1.6,0-3.1,0-4.7,0c-1.3,0-2.6,0-3.9,0.1c-2.9,0-5.7,0.3-8.6,0.8c-2.8,0.5-5.6,1.4-8.1,2.7c-2.5,1.3-4.9,3-6.9,5
	c-2,2-3.7,4.4-5,6.9c-1.3,2.6-2.2,5.3-2.7,8.1c-0.5,2.8-0.7,5.7-0.8,8.6c0,1.3,0,2.6-0.1,3.9V135c0,1.3,0,2.6,0.1,4
	c0,2.9,0.3,5.7,0.8,8.6c0.5,2.8,1.4,5.6,2.7,8.1c1.3,2.6,3,4.9,5,6.9c2,2,4.4,3.7,6.9,5c2.6,1.3,5.3,2.2,8.1,2.7
	c2.8,0.5,5.7,0.7,8.6,0.8c1.3,0,2.6,0,3.9,0c1.6,0,3.1,0,4.7,0h430.4c1.5,0,3.1,0,4.6,0c1.3,0,2.6,0,3.9,0c2.9,0,5.7-0.3,8.6-0.8
	c2.8-0.5,5.6-1.4,8.1-2.7c2.6-1.3,4.9-3,6.9-5c2-2,3.7-4.4,5.1-6.9c1.3-2.6,2.2-5.3,2.7-8.1c0.5-2.8,0.7-5.7,0.8-8.6
	c0-1.3,0-2.6,0-4c0-1.6,0-3.1,0-4.7V40.8C512,39.2,512,37.7,512,36.1 M508.3,130.4c0,1.6,0,3.1,0,4.6c0,1.4,0,2.7,0,4
	c0,2.7-0.3,5.3-0.7,7.9c-0.4,2.5-1.2,4.9-2.3,7.1c-1.1,2.2-2.6,4.2-4.3,5.9c-1.7,1.8-3.8,3.3-6,4.4c-2.2,1.1-4.7,1.9-7.1,2.4
	c-2.6,0.4-5.3,0.7-8,0.7c-1.3,0-2.6,0-3.8,0h-4.6H36.1c-1.3,0-2.6,0-3.9,0c-2.7,0-5.4-0.3-8-0.7c-2.5-0.4-4.9-1.2-7.1-2.3
	c-4.4-2.3-8.1-5.9-10.3-10.3c-1.1-2.2-1.9-4.6-2.3-7.1c-0.4-2.7-0.7-5.3-0.7-8c0-0.9-0.1-3.9-0.1-3.9V36.2c0,0,0-3,0.1-3.8
	c0-2.7,0.3-5.4,0.7-8c0.4-2.5,1.2-4.9,2.3-7.1c1.1-2.2,2.6-4.2,4.4-6c1.8-1.8,3.8-3.2,6-4.4c2.2-1.1,4.6-1.9,7.1-2.3
	c2.7-0.4,5.3-0.7,8-0.7l3.9-0.1h439.7l3.9,0.1c2.7,0,5.3,0.3,8,0.7c2.5,0.4,4.9,1.2,7.1,2.3c4.4,2.3,8.1,5.9,10.3,10.4
	c1.1,2.2,1.9,4.6,2.3,7.1c0.4,2.7,0.7,5.4,0.7,8.1c0,1.2,0,2.5,0,3.8c0,1.6,0,3.1,0,4.7L508.3,130.4z"/>
<path id="Path_1156" class="st0" d="M106.9,85.1c0.1-7.5,4.1-14.5,10.5-18.5c-4.1-5.8-10.7-9.4-17.8-9.6c-7.5-0.8-14.7,4.5-18.5,4.5
	c-3.9,0-9.8-4.4-16.1-4.3c-8.3,0.3-15.9,4.9-19.9,12.1c-8.6,14.9-2.2,36.8,6.1,48.8c4.1,5.9,8.9,12.5,15.2,12.2
	c6.2-0.3,8.5-3.9,15.9-3.9c7.4,0,9.5,3.9,16,3.8c6.6-0.1,10.8-5.9,14.8-11.9c3-4.2,5.2-8.8,6.8-13.8
	C112.1,101.3,106.9,93.6,106.9,85.1"/>
<path id="Path_1157" class="st0" d="M94.8,49.1c3.6-4.3,5.4-9.9,5-15.5c-5.5,0.6-10.6,3.2-14.3,7.4c-3.6,4.1-5.5,9.5-5.1,15
	C86,56,91.3,53.5,94.8,49.1"/>
<path id="Path_1158" class="st0" d="M181,116.1h-20.3l-4.9,14.4h-8.6l19.2-53.1h8.9l19.2,53.1h-8.7L181,116.1z M162.8,109.5h16
	L171,86.2h-0.2L162.8,109.5z"/>
<path id="Path_1159" class="st0" d="M236,111.1c0,12-6.4,19.8-16.2,19.8c-5,0.3-9.8-2.4-12.2-6.8h-0.2v19.2h-8V91.7h7.7v6.4h0.1
	c2.5-4.4,7.3-7,12.3-6.8C229.5,91.3,236,99.1,236,111.1 M227.8,111.1c0-7.8-4.1-13-10.2-13c-6.1,0-10.2,5.3-10.2,13
	c0,7.8,4.1,13,10.2,13C223.8,124.1,227.8,119,227.8,111.1"/>
<path id="Path_1160" class="st0" d="M278.6,111.1c0,12-6.4,19.8-16.2,19.8c-5,0.3-9.8-2.4-12.2-6.8h-0.2v19.2h-8V91.7h7.7v6.4h0.1
	c2.5-4.4,7.3-7,12.3-6.8C272.2,91.3,278.6,99.1,278.6,111.1 M270.5,111.1c0-7.8-4.1-13-10.2-13c-6.1,0-10.2,5.3-10.2,13
	c0,7.8,4.1,13,10.2,13C266.4,124.1,270.5,119,270.5,111.1"/>
<path id="Path_1161" class="st0" d="M306.8,115.7c0.6,5.3,5.7,8.7,12.7,8.7c6.7,0,11.5-3.5,11.5-8.2c0-4.1-2.9-6.6-9.8-8.3l-6.9-1.7
	c-9.8-2.4-14.3-6.9-14.3-14.3c0-9.2,8-15.5,19.3-15.5c11.2,0,18.9,6.3,19.2,15.5h-8c-0.5-5.3-4.9-8.5-11.3-8.5s-10.8,3.2-10.8,8
	c0,3.8,2.8,6,9.6,7.7l5.9,1.4c10.9,2.6,15.4,7,15.4,14.7c0,9.9-7.9,16.2-20.5,16.2c-11.8,0-19.7-6.1-20.3-15.7L306.8,115.7z"/>
<path id="Path_1162" class="st0" d="M356.6,82.6v9.2h7.4V98h-7.4v21.4c0,3.3,1.5,4.9,4.7,4.9c0.9,0,1.7-0.1,2.6-0.2v6.3
	c-1.5,0.3-2.9,0.4-4.4,0.4c-7.8,0-10.9-2.9-10.9-10.5V98H343v-6.3h5.6v-9.2L356.6,82.6z"/>
<path id="Path_1163" class="st0" d="M368.2,111.1c0-12.2,7.2-19.8,18.4-19.8c11.2,0,18.4,7.7,18.4,19.8s-7.1,19.8-18.4,19.8
	S368.2,123.3,368.2,111.1 M396.9,111.1c0-8.4-3.8-13.3-10.3-13.3c-6.4,0-10.3,5-10.3,13.3s3.8,13.3,10.3,13.3
	C393.1,124.4,396.9,119.5,396.9,111.1"/>
<path id="Path_1164" class="st0" d="M411.6,91.7h7.6v6.6h0.2c1.1-4.2,5-7.2,9.3-7c0.9,0,1.8,0.1,2.7,0.3v7.4
	c-1.2-0.4-2.4-0.5-3.6-0.5c-4.4-0.2-8.2,3.3-8.3,7.7c0,0.4,0,0.8,0,1.2v23h-8L411.6,91.7z"/>
<path id="Path_1165" class="st0" d="M468,119.1c-1.1,7-7.9,11.9-16.7,11.9c-11.3,0-18.3-7.6-18.3-19.7s7-20,17.9-20
	c10.7,0,17.5,7.4,17.5,19.1v2.7h-27.4v0.5c-0.5,5.5,3.6,10.4,9.1,10.9c0.4,0,0.9,0,1.3,0c3.9,0.4,7.5-1.9,8.9-5.4L468,119.1z
	 M441.1,107.5h19.4c0.3-5.1-3.6-9.5-8.8-9.8c-0.2,0-0.5,0-0.7,0C445.6,97.7,441.2,102.1,441.1,107.5
	C441.1,107.5,441.1,107.5,441.1,107.5"/>
<path id="Path_1166" class="st0" d="M161.8,37.3c7.6,0,12,4.7,12,12.7c0,8.1-4.4,12.9-12,12.9h-9.2V37.3H161.8z M156.6,59.3h4.8
	c5.3,0,8.4-3.3,8.4-9.2c0.6-4.4-2.5-8.5-6.9-9.1c-0.5-0.1-1-0.1-1.5-0.1h-4.8V59.3z"/>
<path id="Path_1167" class="st0" d="M178.3,53.2c-0.6-4.9,2.8-9.3,7.6-9.9c0.5-0.1,1-0.1,1.4-0.1c5.6,0,9.1,3.8,9.1,10
	s-3.4,10-9.1,10C181.8,63.3,178.3,59.5,178.3,53.2 M192.6,53.2c0-4.2-1.9-6.6-5.2-6.6s-5.2,2.4-5.2,6.6s1.9,6.6,5.2,6.6
	C190.7,59.9,192.6,57.4,192.6,53.2"/>
<path id="Path_1168" class="st0" d="M220.7,62.9h-3.9l-4-14.2h-0.3l-4,14.2h-3.9l-5.3-19.3h3.9l3.5,14.7h0.3l4-14.7h3.7l4,14.7h0.3
	l3.4-14.7h3.8L220.7,62.9z"/>
<path id="Path_1169" class="st0" d="M230.4,43.6h3.7v3.1h0.3c1-2.3,3.3-3.6,5.8-3.4c3.4-0.3,6.5,2.3,6.7,5.8c0,0.5,0,0.9,0,1.4v12.5
	H243V51.4c0-3.1-1.3-4.6-4.2-4.6c-2.4-0.1-4.5,1.8-4.6,4.2c0,0.2,0,0.5,0,0.7v11.3h-3.8L230.4,43.6z"/>
<rect id="Rectangle_514" x="252.8" y="36.1" class="st0" width="3.8" height="26.8"/>
<path id="Path_1170" class="st0" d="M261.9,53.2c-0.5-5,3.2-9.5,8.2-10c5-0.5,9.5,3.2,10,8.2c0.1,0.6,0.1,1.2,0,1.7
	c0,6.2-3.5,10-9.1,10C265.4,63.3,261.9,59.5,261.9,53.2 M276.2,53.2c0-4.2-1.9-6.6-5.2-6.6s-5.2,2.4-5.2,6.6s1.9,6.6,5.2,6.6
	S276.2,57.4,276.2,53.2"/>
<path id="Path_1171" class="st0" d="M284.1,57.4c0-3.5,2.6-5.5,7.2-5.8l5.2-0.3v-1.7c0-2-1.3-3.2-3.9-3.2c-2.1,0-3.6,0.8-4,2.2h-3.7
	c0.4-3.3,3.5-5.4,7.9-5.4c4.8,0,7.6,2.4,7.6,6.5v13.2h-3.7v-2.7h-0.3c-1.2,2-3.5,3.1-5.8,3c-3.2,0.3-6.1-2-6.4-5.2
	C284.1,57.8,284.1,57.6,284.1,57.4 M296.5,55.8v-1.6l-4.7,0.3c-2.7,0.2-3.8,1.1-3.8,2.8s1.5,2.7,3.6,2.7c2.5,0.3,4.7-1.6,5-4.1
	C296.5,55.9,296.5,55.8,296.5,55.8"/>
<path id="Path_1172" class="st0" d="M305.3,53.2c0-6.1,3.1-9.9,8-9.9c2.5-0.1,4.8,1.2,5.9,3.4h0.3V36.1h3.8v26.8h-3.6v-3h-0.3
	c-1.2,2.2-3.6,3.4-6,3.4C308.4,63.2,305.3,59.3,305.3,53.2 M309.2,53.2c0,4.1,1.9,6.5,5.2,6.5c3.2,0,5.2-2.5,5.2-6.5s-2-6.5-5.2-6.5
	S309.2,49.2,309.2,53.2"/>
<path id="Path_1173" class="st0" d="M339,53.2c-0.6-4.9,2.8-9.3,7.6-9.9c0.5-0.1,1-0.1,1.5-0.1c5.6,0,9.1,3.8,9.1,10s-3.5,10-9.1,10
	C342.5,63.3,339,59.5,339,53.2 M353.3,53.2c0-4.2-1.9-6.6-5.2-6.6c-3.3,0-5.2,2.4-5.2,6.6s1.9,6.6,5.2,6.6
	C351.4,59.9,353.3,57.4,353.3,53.2"/>
<path id="Path_1174" class="st0" d="M362.3,43.6h3.7v3.1h0.3c1-2.3,3.3-3.6,5.8-3.4c3.4-0.3,6.5,2.3,6.7,5.8c0,0.5,0,0.9,0,1.4v12.5
	h-3.8V51.4c0-3.1-1.3-4.6-4.2-4.6c-2.4-0.1-4.5,1.8-4.6,4.2c0,0.2,0,0.5,0,0.7v11.3h-3.8L362.3,43.6z"/>
<path id="Path_1175" class="st0" d="M400.1,38.8v4.9h4.2v3.2h-4.2v9.9c0,2,0.8,2.9,2.7,2.9c0.5,0,1,0,1.4-0.1v3.2
	c-0.7,0.1-1.4,0.2-2.1,0.2c-4.2,0-5.9-1.5-5.9-5.2V46.9h-3.1v-3.2h3.1v-4.9H400.1z"/>
<path id="Path_1176" class="st0" d="M409.5,36.1h3.8v10.6h0.3c1-2.3,3.4-3.7,5.9-3.4c3.5-0.2,6.5,2.5,6.7,6c0,0.4,0,0.8,0,1.2v12.4
	h-3.8V51.4c0-3.1-1.4-4.6-4.1-4.6c-2.5-0.2-4.7,1.6-4.9,4.1c0,0.3,0,0.5,0,0.8v11.3h-3.8V36.1z"/>
<path id="Path_1177" class="st0" d="M448.2,57.7c-1.1,3.6-4.6,6-8.3,5.6c-5.5,0-8.9-3.8-8.9-10s3.4-10.1,8.9-10.1
	c5.4,0,8.6,3.7,8.6,9.7v1.3h-13.6v0.2c-0.2,2.8,1.8,5.3,4.6,5.5c0.2,0,0.3,0,0.5,0c1.9,0.2,3.7-0.7,4.6-2.3L448.2,57.7z M434.9,51.5
	h9.7c0.2-2.6-1.7-4.8-4.3-5c-0.1,0-0.3,0-0.4,0c-2.7,0-5,2.1-5,4.9C434.9,51.4,434.9,51.4,434.9,51.5"/>
</svg>
