<?xml version="1.0" encoding="utf-8"?>
<!-- Generator: Adobe Illustrator 27.4.1, SVG Export Plug-In . SVG Version: 6.00 Build 0)  -->
<svg version="1.1" id="Layer_1" xmlns="http://www.w3.org/2000/svg" xmlns:xlink="http://www.w3.org/1999/xlink" x="0px" y="0px"
	 viewBox="0 0 512 151.7" style="enable-background:new 0 0 512 151.7;" xml:space="preserve">
<style type="text/css">
	.st0{fill:#FFFFFF;}
</style>
<path id="Path_1178" class="st0" d="M493,3C501.8,3,509,10.2,509,19l0,0v113.8c0,8.8-7.1,15.9-15.9,15.9l0,0H19
	c-8.8,0-15.9-7.1-15.9-15.9l0,0V19C3,10.2,10.2,3,19,3L493,3z M493,0H19C8.5,0,0,8.5,0,19v113.8c0,10.5,8.5,18.9,19,19H493
	c10.5,0,18.9-8.5,19-19V19C512,8.5,503.5,0,493,0"/>
<path id="Path_1179" class="st0" d="M179.8,38.8c0.1,2.8-0.9,5.6-2.8,7.6c-2.2,2.3-5.2,3.5-8.4,3.4c-6.6,0-11.9-5.3-11.9-11.9
	c0-6.6,5.3-11.9,11.9-11.9c1.6,0,3.2,0.3,4.7,1c1.4,0.6,2.6,1.4,3.6,2.5l-2,2c-1.5-1.8-3.8-2.8-6.2-2.7c-5,0-9.1,4.1-9,9.1
	c0,5,4.1,9.1,9.1,9c2.3,0,4.6-0.9,6.2-2.5c1.2-1.3,1.8-2.9,1.9-4.6h-8.3v-2.7h11C179.8,37.7,179.8,38.3,179.8,38.8"/>
<path id="Path_1180" class="st0" d="M197.3,29.3H187v7.2h9.3v2.7H187v7.2h10.4v2.8H184V26.5h13.3L197.3,29.3z"/>
<path id="Path_1181" class="st0" d="M209.7,49.3h-2.9v-20h-6.3v-2.8H216v2.8h-6.4L209.7,49.3z"/>
<rect id="Rectangle_515" x="227.3" y="26.5" class="st0" width="2.9" height="22.8"/>
<path id="Path_1182" class="st0" d="M243.2,49.3h-2.9v-20h-6.4v-2.8h15.6v2.8h-6.4L243.2,49.3z"/>
<path id="Path_1183" class="st0" d="M279.2,46.4c-4.6,4.6-12.1,4.6-16.7,0c-4.5-4.7-4.5-12.1,0-16.9c4.6-4.6,12-4.6,16.7,0
	c0,0,0,0,0,0C283.7,34.2,283.7,41.6,279.2,46.4 M264.7,44.4c3.4,3.4,8.9,3.4,12.4,0c3.4-3.7,3.4-9.4,0-13.1c-3.4-3.4-8.9-3.4-12.4,0
	C261.3,35.1,261.3,40.7,264.7,44.4"/>
<path id="Path_1184" class="st0" d="M286.6,49.3V26.6h3.5l11.1,17.7h0.1l-0.1-4.4V26.6h2.9v22.7h-3l-11.6-18.6h-0.1l0.1,4.4v14.2
	L286.6,49.3z"/>
<path id="Path_1185" class="st0" d="M258.4,82.5c-8.9,0-16.1,7.3-16.1,16.2c0,8.9,7.3,16.1,16.2,16.1c8.9,0,16.1-7.2,16.1-16.1
	c0.1-8.8-6.9-16-15.7-16.1C258.8,82.5,258.6,82.5,258.4,82.5 M258.4,108.4c-5.4,0.4-10.1-3.7-10.5-9.1c-0.4-5.4,3.7-10.1,9.1-10.5
	c5.4-0.4,10.1,3.7,10.5,9.1c0,0.2,0,0.5,0,0.7c0.2,5.1-3.7,9.5-8.9,9.8C258.6,108.4,258.5,108.4,258.4,108.4 M223.1,82.5
	c-8.9,0-16.1,7.3-16.1,16.2c0,8.9,7.3,16.1,16.2,16.1c8.9,0,16.1-7.2,16.1-16.1c0.1-8.8-6.9-16-15.7-16.1
	C223.4,82.5,223.3,82.5,223.1,82.5 M223.1,108.4c-5.4,0.4-10.1-3.7-10.5-9.1s3.7-10.1,9.1-10.5c5.4-0.4,10.1,3.7,10.5,9.1
	c0,0.2,0,0.5,0,0.7c0.2,5.1-3.7,9.5-8.9,9.8C223.2,108.4,223.2,108.4,223.1,108.4 M181.1,87.4v6.8h16.4c-0.2,3.2-1.6,6.2-3.7,8.6
	c-3.3,3.4-7.9,5.2-12.6,5c-10.1-0.1-18.1-8.4-18-18.5c0.1-9.9,8.1-17.8,18-18c4.6-0.1,9,1.7,12.3,4.9l4.8-4.8
	c-4.6-4.5-10.7-7-17.2-6.9c-13.8-0.2-25.2,10.8-25.5,24.6c-0.2,13.8,10.8,25.2,24.6,25.5c0.3,0,0.6,0,0.8,0c6.6,0.3,12.9-2.3,17.5-7
	c4.8-5.6,6.8-13,5.6-20.3L181.1,87.4z M352.9,92.8c-2-6-7.5-10.1-13.8-10.3c-8.5,0-15.3,6.9-15.3,15.4c0,0.2,0,0.5,0,0.7
	c-0.2,8.7,6.7,15.9,15.4,16.1c0.2,0,0.4,0,0.6,0c5.4,0,10.4-2.7,13.4-7.1l-5.5-3.7c-1.7,2.8-4.7,4.5-7.9,4.5
	c-3.4,0.1-6.5-1.8-7.8-4.9l21.6-8.9L352.9,92.8z M330.9,98.1c-0.3-4.9,3.4-9.1,8.3-9.4c0.1,0,0.1,0,0.2,0c2.5-0.2,4.9,1.2,6,3.4
	L330.9,98.1z M313.4,113.8h7.1V66.4h-7.1V113.8z M301.8,86.1h-0.2c-2.2-2.4-5.3-3.7-8.5-3.6c-8.9,0.4-15.8,7.9-15.5,16.8
	c0.4,8.4,7.1,15.1,15.5,15.5c3.2,0.1,6.3-1.3,8.5-3.7h0.2v2.3c0,6.2-3.3,9.5-8.6,9.5c-3.6-0.1-6.8-2.4-8.1-5.7l-6.2,2.6
	c2.4,5.8,8,9.6,14.3,9.5c8.3,0,15.3-4.9,15.3-16.8v-29h-6.7L301.8,86.1z M293.6,108.4c-5.4-0.4-9.4-5.2-9-10.6c0.4-4.8,4.2-8.6,9-9
	c5.4,0.7,9.2,5.6,8.5,11C301.6,104.3,298.1,107.8,293.6,108.4 M386.1,66.4h-17v47.4h7.1v-18h9.9c8.1,0.4,15.1-5.8,15.5-13.9
	c0.4-8.1-5.8-15.1-13.9-15.5C387.2,66.4,386.7,66.4,386.1,66.4 M386.3,89.2h-10.1V73h10.1c4.5-0.1,8.2,3.4,8.4,7.9
	c0.1,4.5-3.4,8.2-7.9,8.4C386.6,89.2,386.5,89.2,386.3,89.2 M430,82.4c-5.3-0.3-10.2,2.5-12.6,7.3l6.3,2.6c1.3-2.3,3.8-3.7,6.5-3.5
	c3.7-0.4,7.1,2.4,7.4,6.1v0.5c-2.3-1.2-4.8-1.8-7.4-1.8c-6.8,0-13.7,3.7-13.7,10.7c0.3,6,5.4,10.7,11.4,10.5c0.1,0,0.2,0,0.3,0
	c3.6,0.2,7.1-1.6,9-4.6h0.2v3.7h6.8V95.5C444.4,87.1,438.2,82.4,430,82.4 M429.2,108.4c-2.3,0-5.6-1.1-5.6-4c0-3.7,4-5.1,7.5-5.1
	c2.3-0.1,4.5,0.5,6.5,1.6C437.1,105.2,433.5,108.4,429.2,108.4 M469.3,83.5l-8.1,20.5H461l-8.4-20.5h-7.6l12.6,28.7l-7.2,16h7.4
	l19.5-44.7H469.3z M405.6,113.8h7.1V66.4h-7.1V113.8z"/>
<path id="Path_1186" class="st0" d="M86.8,72.3l13.7-13.8l-53-30.1c-1.6-1-3.4-1.4-5.3-1.1L86.8,72.3z"/>
<path id="Path_1187" class="st0" d="M38.4,30.5c-0.4,1.1-0.6,2.2-0.6,3.4v83.8c0,1.2,0.2,2.3,0.6,3.4l44.9-45.3L38.4,30.5z"/>
<path id="Path_1188" class="st0" d="M86.8,79.3l-44.6,45.1c1.8,0.3,3.7-0.1,5.3-1.1l53.1-30.2L86.8,79.3z"/>
<path id="Path_1189" class="st0" d="M121.4,70.4L104.9,61L90.3,75.8L105,90.6l16.4-9.3C126.7,78.3,126.7,73.4,121.4,70.4"/>
</svg>
